<?xml version="1.0" encoding="UTF-8"?>
<svg id="Livello_1" xmlns="http://www.w3.org/2000/svg" version="1.1" viewBox="0 0 640 480">
  <!-- Generator: Adobe Illustrator 30.3.0, SVG Export Plug-In . SVG Version: 2.1.3 Build 182)  -->
  <rect y="0" width="640" height="480" rx="32" ry="32" fill="#0f1318"/>
  <rect x="24" y="24" width="592" height="432" rx="24" ry="24" fill="#12161b" stroke="#242b33" stroke-width="4"/>
  <rect x="160" y="80" width="320" height="200" rx="24" ry="24" fill="#171c22" stroke="#2b3440" stroke-width="4"/>
  <path d="M218,265l66-72,52,54,46-40,40,58h-204Z" fill="#38bdf8" fill-opacity=".2" stroke="#38bdf8" stroke-linejoin="round" stroke-width="8"/>
  <circle cx="275" cy="140" r="22" fill="#38bdf8" fill-opacity=".35"/>
  <g isolation="isolate">
    <path d="M128.25,346v-30.78h6.21v30.78h-6.21Z" fill="#eef2f7"/>
    <path d="M139.91,323.7h5.44v3.04c1.95-2.37,4.26-3.55,6.95-3.55,1.43,0,2.67.29,3.72.88s1.91,1.48,2.58,2.67c.98-1.19,2.04-2.08,3.17-2.67s2.34-.88,3.63-.88c1.64,0,3.02.33,4.16,1,1.13.67,1.98,1.64,2.54,2.93.41.95.61,2.49.61,4.62v14.26h-5.9v-12.74c0-2.21-.2-3.64-.61-4.28-.55-.84-1.39-1.26-2.52-1.26-.83,0-1.6.25-2.33.76s-1.25,1.24-1.57,2.21c-.32.97-.48,2.51-.48,4.61v10.71h-5.9v-12.22c0-2.17-.11-3.57-.32-4.2s-.54-1.1-.98-1.41c-.44-.31-1.04-.46-1.8-.46-.91,0-1.73.24-2.46.73-.73.49-1.25,1.2-1.56,2.12-.31.92-.47,2.46-.47,4.6v10.83h-5.9v-22.3Z" fill="#eef2f7"/>
    <path d="M178.14,323.7h5.44v3.04c1.95-2.37,4.26-3.55,6.95-3.55,1.43,0,2.67.29,3.72.88s1.91,1.48,2.58,2.67c.98-1.19,2.04-2.08,3.17-2.67s2.34-.88,3.63-.88c1.64,0,3.02.33,4.16,1,1.13.67,1.98,1.64,2.54,2.93.41.95.61,2.49.61,4.62v14.26h-5.9v-12.74c0-2.21-.2-3.64-.61-4.28-.55-.84-1.39-1.26-2.52-1.26-.83,0-1.6.25-2.33.76-.73.5-1.25,1.24-1.58,2.21s-.48,2.51-.48,4.61v10.71h-5.9v-12.22c0-2.17-.1-3.57-.31-4.2s-.54-1.1-.98-1.41c-.44-.31-1.04-.46-1.79-.46-.91,0-1.73.24-2.46.73s-1.25,1.2-1.56,2.12c-.31.92-.47,2.46-.47,4.6v10.83h-5.9v-22.3Z" fill="#eef2f7"/>
    <path d="M221.22,330.5l-5.35-.97c.6-2.16,1.64-3.75,3.11-4.79s3.65-1.55,6.55-1.55c2.63,0,4.59.31,5.88.93,1.29.62,2.19,1.41,2.72,2.37.53.96.79,2.72.79,5.28l-.06,6.89c0,1.96.09,3.41.28,4.34.19.93.54,1.93,1.06,2.99h-5.84c-.15-.39-.34-.97-.57-1.74-.1-.35-.17-.58-.21-.69-1.01.98-2.09,1.71-3.23,2.21-1.15.49-2.37.73-3.67.73-2.3,0-4.1-.62-5.43-1.87-1.32-1.25-1.98-2.82-1.98-4.72,0-1.26.3-2.38.9-3.37.6-.99,1.45-1.74,2.53-2.27,1.08-.52,2.65-.98,4.69-1.38,2.76-.52,4.67-1,5.73-1.45v-.59c0-1.13-.28-1.94-.84-2.42-.56-.48-1.62-.72-3.17-.72-1.05,0-1.87.21-2.46.62s-1.06,1.14-1.43,2.17ZM229.12,335.29c-.76.25-1.95.55-3.59.9-1.64.35-2.71.69-3.21,1.03-.77.55-1.15,1.24-1.15,2.08s.31,1.54.92,2.14c.62.6,1.4.9,2.35.9,1.06,0,2.08-.35,3.04-1.05.71-.53,1.18-1.18,1.41-1.95.15-.5.23-1.46.23-2.88v-1.18Z" fill="#eef2f7"/>
    <path d="M240.18,347.47l6.74.82c.11.78.37,1.32.78,1.62.56.42,1.44.63,2.65.63,1.54,0,2.69-.23,3.46-.69.52-.31.91-.8,1.18-1.49.18-.49.27-1.39.27-2.71v-3.25c-1.76,2.41-3.99,3.61-6.68,3.61-3,0-5.37-1.27-7.12-3.8-1.37-2-2.06-4.49-2.06-7.47,0-3.74.9-6.59,2.7-8.57,1.8-1.97,4.03-2.96,6.71-2.96s5.03,1.21,6.82,3.63v-3.13h5.52v20.01c0,2.63-.22,4.6-.65,5.9-.43,1.3-1.04,2.32-1.83,3.07s-1.83,1.32-3.14,1.74-2.96.63-4.97.63c-3.78,0-6.46-.65-8.04-1.94-1.58-1.29-2.37-2.94-2.37-4.92,0-.2,0-.43.02-.71ZM245.45,334.39c0,2.37.46,4.1,1.38,5.2.92,1.1,2.05,1.65,3.39,1.65,1.44,0,2.66-.56,3.65-1.69.99-1.13,1.49-2.8,1.49-5.01s-.48-4.02-1.43-5.14c-.95-1.12-2.16-1.68-3.61-1.68s-2.58.55-3.5,1.65c-.92,1.1-1.38,2.78-1.38,5.03Z" fill="#eef2f7"/>
    <path d="M267,320.68v-5.46h5.9v5.46h-5.9ZM267,346v-22.3h5.9v22.3h-5.9Z" fill="#eef2f7"/>
    <path d="M299.22,346h-5.9v-11.38c0-2.41-.13-3.96-.38-4.67-.25-.71-.66-1.26-1.23-1.65-.57-.39-1.25-.59-2.05-.59-1.02,0-1.94.28-2.75.84-.81.56-1.37,1.3-1.67,2.22-.3.92-.45,2.63-.45,5.12v10.1h-5.9v-22.3h5.48v3.28c1.95-2.52,4.4-3.78,7.35-3.78,1.3,0,2.49.23,3.57.7,1.08.47,1.89,1.07,2.45,1.8.55.73.94,1.55,1.15,2.48.22.92.33,2.25.33,3.97v13.86Z" fill="#eef2f7"/>
    <path d="M318.12,338.9l5.88.99c-.76,2.16-1.95,3.8-3.58,4.92-1.63,1.13-3.67,1.69-6.12,1.69-3.88,0-6.75-1.27-8.61-3.8-1.47-2.03-2.21-4.59-2.21-7.68,0-3.7.97-6.59,2.9-8.68,1.93-2.09,4.37-3.14,7.33-3.14,3.32,0,5.93,1.1,7.85,3.29,1.92,2.19,2.83,5.55,2.75,10.07h-14.78c.04,1.75.52,3.11,1.43,4.08s2.04,1.46,3.4,1.46c.92,0,1.7-.25,2.33-.76s1.11-1.32,1.43-2.44ZM318.46,332.94c-.04-1.71-.48-3.01-1.32-3.89s-1.86-1.33-3.07-1.33c-1.29,0-2.35.47-3.19,1.41s-1.25,2.21-1.24,3.82h8.82Z" fill="#eef2f7"/>
    <path d="M340.9,323.7h5.5v3.28c.71-1.12,1.68-2.03,2.9-2.73s2.57-1.05,4.05-1.05c2.59,0,4.79,1.01,6.59,3.04,1.81,2.03,2.71,4.86,2.71,8.48s-.91,6.62-2.73,8.68-4.02,3.1-6.61,3.1c-1.23,0-2.35-.25-3.35-.73-1-.49-2.05-1.33-3.16-2.52v11.23h-5.9v-30.78ZM346.74,334.47c0,2.51.5,4.36,1.49,5.55.99,1.2,2.2,1.8,3.63,1.8s2.51-.55,3.42-1.65c.91-1.1,1.36-2.9,1.36-5.41,0-2.34-.47-4.07-1.41-5.21-.94-1.13-2.1-1.7-3.49-1.7s-2.64.56-3.59,1.67c-.95,1.11-1.43,2.76-1.43,4.94Z" fill="#eef2f7"/>
    <path d="M372.98,346h-5.9v-22.3h5.48v3.17c.94-1.5,1.78-2.49,2.53-2.96s1.6-.71,2.55-.71c1.34,0,2.64.37,3.88,1.11l-1.83,5.14c-.99-.64-1.92-.97-2.77-.97s-1.53.23-2.1.68-1.03,1.28-1.35,2.47c-.33,1.19-.49,3.68-.49,7.47v6.89Z" fill="#eef2f7"/>
    <path d="M382.71,334.54c0-1.96.48-3.86,1.45-5.69.97-1.83,2.33-3.23,4.11-4.2,1.77-.96,3.75-1.45,5.93-1.45,3.37,0,6.14,1.1,8.29,3.29,2.16,2.19,3.23,4.96,3.23,8.3s-1.09,6.17-3.26,8.39c-2.18,2.22-4.92,3.33-8.22,3.33-2.04,0-3.99-.46-5.85-1.39-1.86-.92-3.27-2.28-4.23-4.06-.97-1.79-1.45-3.96-1.45-6.52ZM388.75,334.85c0,2.21.52,3.9,1.57,5.08s2.34,1.76,3.88,1.76,2.83-.59,3.87-1.76c1.04-1.18,1.56-2.88,1.56-5.12s-.52-3.86-1.56-5.04c-1.04-1.18-2.33-1.76-3.87-1.76s-2.83.59-3.88,1.76-1.57,2.87-1.57,5.08Z" fill="#eef2f7"/>
    <path d="M430.79,346h-5.48v-3.28c-.91,1.27-1.98,2.22-3.22,2.84-1.24.62-2.49.93-3.75.93-2.56,0-4.76-1.03-6.58-3.1-1.83-2.06-2.74-4.94-2.74-8.64s.89-6.65,2.67-8.62c1.78-1.97,4.02-2.95,6.74-2.95,2.49,0,4.65,1.04,6.47,3.11v-11.09h5.9v30.78ZM415.04,334.37c0,2.38.33,4.1.99,5.17.95,1.54,2.28,2.31,3.99,2.31,1.36,0,2.51-.58,3.46-1.73.95-1.15,1.43-2.88,1.43-5.17,0-2.56-.46-4.41-1.39-5.53-.92-1.13-2.11-1.69-3.55-1.69s-2.57.56-3.52,1.67c-.95,1.11-1.42,2.77-1.42,4.99Z" fill="#eef2f7"/>
    <path d="M435.24,334.54c0-1.96.48-3.86,1.45-5.69.97-1.83,2.33-3.23,4.11-4.2,1.77-.96,3.75-1.45,5.93-1.45,3.37,0,6.14,1.1,8.29,3.29,2.16,2.19,3.23,4.96,3.23,8.3s-1.09,6.17-3.26,8.39c-2.18,2.22-4.92,3.33-8.22,3.33-2.04,0-3.99-.46-5.85-1.39-1.86-.92-3.27-2.28-4.23-4.06-.97-1.79-1.45-3.96-1.45-6.52ZM441.28,334.85c0,2.21.52,3.9,1.57,5.08s2.34,1.76,3.88,1.76,2.83-.59,3.87-1.76c1.04-1.18,1.56-2.88,1.56-5.12s-.52-3.86-1.56-5.04c-1.04-1.18-2.33-1.76-3.87-1.76s-2.83.59-3.88,1.76-1.57,2.87-1.57,5.08Z" fill="#eef2f7"/>
    <path d="M473.09,323.7v4.7h-4.03v8.99c0,1.82.04,2.88.12,3.18.08.3.25.55.53.75.27.2.61.29,1,.29.55,0,1.34-.19,2.37-.57l.5,4.58c-1.37.59-2.93.88-4.66.88-1.06,0-2.02-.18-2.88-.54-.85-.36-1.48-.82-1.88-1.39-.4-.57-.68-1.33-.83-2.3-.13-.69-.19-2.07-.19-4.16v-9.72h-2.71v-4.7h2.71v-4.43l5.92-3.44v7.87h4.03Z" fill="#eef2f7"/>
    <path d="M487.41,323.7v4.7h-4.03v8.99c0,1.82.04,2.88.12,3.18.08.3.25.55.53.75.27.2.61.29,1,.29.55,0,1.34-.19,2.37-.57l.5,4.58c-1.37.59-2.93.88-4.66.88-1.06,0-2.02-.18-2.88-.54-.85-.36-1.48-.82-1.88-1.39-.4-.57-.68-1.33-.83-2.3-.13-.69-.19-2.07-.19-4.16v-9.72h-2.71v-4.7h2.71v-4.43l5.92-3.44v7.87h4.03Z" fill="#eef2f7"/>
    <path d="M490.14,334.54c0-1.96.48-3.86,1.45-5.69.97-1.83,2.33-3.23,4.1-4.2,1.77-.96,3.75-1.45,5.93-1.45,3.37,0,6.14,1.1,8.29,3.29s3.23,4.96,3.23,8.3-1.09,6.17-3.26,8.39c-2.18,2.22-4.92,3.33-8.22,3.33-2.04,0-3.99-.46-5.85-1.39s-3.26-2.28-4.23-4.06c-.97-1.79-1.45-3.96-1.45-6.52ZM496.19,334.85c0,2.21.53,3.9,1.58,5.08s2.34,1.76,3.88,1.76,2.83-.59,3.87-1.76,1.56-2.88,1.56-5.12-.52-3.86-1.56-5.04-2.33-1.76-3.87-1.76-2.83.59-3.88,1.76-1.58,2.87-1.58,5.08Z" fill="#eef2f7"/>
    <path d="M267.27,397.6h-6.76l-2.69-6.99h-12.3l-2.54,6.99h-6.59l11.99-30.78h6.57l12.33,30.78ZM255.83,385.42l-4.24-11.42-4.16,11.42h8.4Z" fill="#eef2f7"/>
    <path d="M270.08,375.3h5.44v3.04c1.95-2.37,4.26-3.55,6.95-3.55,1.43,0,2.67.29,3.72.88s1.91,1.48,2.58,2.67c.98-1.19,2.04-2.08,3.17-2.67s2.34-.88,3.63-.88c1.64,0,3.02.33,4.16,1,1.13.67,1.98,1.64,2.54,2.93.41.95.61,2.49.61,4.62v14.26h-5.9v-12.74c0-2.21-.2-3.64-.61-4.28-.55-.84-1.39-1.26-2.52-1.26-.83,0-1.6.25-2.33.76s-1.25,1.24-1.57,2.21c-.32.97-.48,2.51-.48,4.61v10.71h-5.9v-12.22c0-2.17-.11-3.57-.32-4.2s-.54-1.1-.98-1.41c-.44-.31-1.04-.46-1.8-.46-.91,0-1.73.24-2.46.73-.73.49-1.25,1.2-1.56,2.12-.31.92-.47,2.46-.47,4.6v10.83h-5.9v-22.3Z" fill="#eef2f7"/>
    <path d="M313.17,382.1l-5.35-.97c.6-2.16,1.64-3.75,3.11-4.79s3.65-1.55,6.55-1.55c2.63,0,4.59.31,5.88.93s2.19,1.41,2.72,2.37c.53.96.79,2.72.79,5.28l-.06,6.89c0,1.96.09,3.41.28,4.34.19.93.54,1.93,1.06,2.99h-5.84c-.15-.39-.34-.97-.57-1.74-.1-.35-.17-.58-.21-.69-1.01.98-2.09,1.71-3.23,2.21-1.15.49-2.37.73-3.67.73-2.3,0-4.1-.62-5.43-1.87-1.32-1.25-1.98-2.82-1.98-4.72,0-1.26.3-2.38.9-3.37.6-.99,1.45-1.74,2.53-2.27,1.08-.52,2.65-.98,4.69-1.38,2.76-.52,4.67-1,5.73-1.45v-.59c0-1.13-.28-1.94-.84-2.42-.56-.48-1.62-.72-3.17-.72-1.05,0-1.87.21-2.46.62s-1.06,1.14-1.43,2.17ZM321.06,386.89c-.76.25-1.95.55-3.59.9-1.64.35-2.71.69-3.21,1.03-.77.55-1.16,1.24-1.16,2.08s.31,1.54.92,2.14c.62.6,1.4.9,2.35.9,1.06,0,2.08-.35,3.04-1.05.71-.53,1.18-1.18,1.41-1.95.15-.5.23-1.46.23-2.88v-1.18Z" fill="#eef2f7"/>
    <path d="M330.3,397.6v-4.6l8.36-9.6c1.37-1.57,2.39-2.68,3.04-3.34-.69.04-1.59.07-2.71.08l-7.87.04v-4.89h18.43v4.18l-8.52,9.83-3,3.25c1.64-.1,2.65-.15,3.04-.15h9.13v5.19h-19.9Z" fill="#eef2f7"/>
    <path d="M352.81,386.14c0-1.96.48-3.86,1.45-5.69.97-1.83,2.33-3.23,4.11-4.2,1.77-.96,3.75-1.45,5.93-1.45,3.37,0,6.14,1.1,8.29,3.29,2.16,2.19,3.23,4.96,3.23,8.3s-1.09,6.17-3.26,8.39c-2.18,2.22-4.92,3.33-8.22,3.33-2.04,0-3.99-.46-5.85-1.39-1.86-.92-3.27-2.28-4.23-4.06-.97-1.79-1.45-3.96-1.45-6.52ZM358.85,386.45c0,2.21.52,3.9,1.57,5.08s2.34,1.76,3.88,1.76,2.83-.59,3.87-1.76c1.04-1.18,1.56-2.88,1.56-5.12s-.52-3.86-1.56-5.04c-1.04-1.18-2.33-1.76-3.87-1.76s-2.83.59-3.88,1.76-1.57,2.87-1.57,5.08Z" fill="#eef2f7"/>
    <path d="M400.72,397.6h-5.9v-11.38c0-2.41-.13-3.96-.38-4.67-.25-.71-.66-1.26-1.23-1.65-.57-.39-1.25-.59-2.05-.59-1.02,0-1.94.28-2.75.84-.81.56-1.37,1.3-1.67,2.22-.3.92-.45,2.63-.45,5.12v10.1h-5.9v-22.3h5.48v3.28c1.95-2.52,4.4-3.78,7.35-3.78,1.3,0,2.49.23,3.57.7,1.08.47,1.89,1.07,2.45,1.8.55.73.94,1.55,1.15,2.48.22.92.33,2.25.33,3.97v13.86Z" fill="#eef2f7"/>
  </g>
</svg>