<?xml version="1.0" encoding="UTF-8"?>
<svg id="Layer_1" data-name="Layer 1" xmlns="http://www.w3.org/2000/svg" viewBox="0 0 299.24 96">
  <g>
    <path d="M57.75,47.21c-1.53,1.98-3.5,3.67-5.92,5.09-1.46.85-3.04,1.57-4.7,2.2,0,.19.01.38.01.58,0,9.42-7.64,17.06-17.06,17.06-6.53,0-12.21-3.67-15.08-9.07-4.03,2.02-6.87,4.78-8.32,8.98.9,1.25,1.91,2.45,3.04,3.58l20.37,20.37,20.37-20.37c7.7-7.7,10.12-18.66,7.29-28.42Z" fill="#4abaeb"/>
    <path d="M46.48,10.36c-8.31,4.32.32,12.62-9.17,18.34,5.18-12.31-9.6-16.29-4.53-28.7-18.34,11.86-2.37,20.99-16,31.71,3.32-7.72.4-15.54-8.87-17.48,4.21,11.49-15.05,33.88-4.94,50.78,1.72-2.58,4.03-4.76,6.92-6.55,1.02-.63,2.09-1.19,3.19-1.7-.05-.56-.08-1.12-.08-1.69,0-9.42,7.64-17.06,17.06-17.06,6.94,0,12.91,4.15,15.58,10.1,4.38-1.78,7.39-4.25,8.76-8.29,3.52-11.34-8.35-18.84-7.92-29.46ZM12.6,32.68c1.49-3.87,1.78-8.4,1.02-12.77,2.92,3.9,2.59,9.44-1.02,12.77ZM34.13,24.45c-1.4-5.63-7.45-7.95-4.4-14.8-.08,5.29,6.61,8.79,4.4,14.8ZM50.71,29.3c-1.85-5.1-6.99-6.96-5.03-13.04.35,4.94,5.29,7.82,5.03,13.04Z" fill="#f59e11"/>
  </g>
  <g>
    <g>
      <path d="M98.74,20.66c-1.66-.87-3.6-1.31-5.81-1.31h-12.85v29.82h8.08v-8.85h4.48c2.27,0,4.26-.42,5.96-1.27,1.71-.85,3.04-2.05,3.98-3.6.95-1.55,1.42-3.4,1.42-5.53s-.46-3.98-1.39-5.56c-.93-1.59-2.22-2.82-3.88-3.69ZM95.03,32.1c-.36.61-.88,1.09-1.56,1.43s-1.5.51-2.46.51h-2.84v-8.21h2.84c.96,0,1.78.16,2.46.48.68.32,1.2.78,1.56,1.39.36.61.54,1.34.54,2.21s-.18,1.57-.54,2.18Z" fill="#fff"/>
      <path d="M119.26,26.52c-1.19,0-2.22.36-3.11,1.09-.89.73-1.53,1.88-1.93,3.47h-.24v-4.28h-7.81v22.37h8.05v-11.65c0-.85.18-1.6.53-2.23.35-.63.84-1.13,1.47-1.48.63-.35,1.33-.53,2.12-.53.41,0,.91.03,1.49.09.58.06,1.07.16,1.47.31v-6.84c-.32-.11-.65-.19-1-.24-.35-.05-.69-.08-1.04-.08Z" fill="#fff"/>
      <path d="M142.02,29.59c-.97-.99-2.14-1.75-3.51-2.28-1.37-.53-2.9-.79-4.59-.79-2.31,0-4.31.48-6,1.44-1.69.96-3.01,2.3-3.93,4.03-.93,1.73-1.39,3.75-1.39,6.05s.46,4.48,1.38,6.2c.92,1.72,2.24,3.04,3.97,3.95,1.73.91,3.79,1.37,6.17,1.37,1.91,0,3.59-.27,5.03-.8,1.45-.53,2.64-1.29,3.59-2.27.95-.98,1.61-2.14,1.98-3.47l-7.08-1.04c-.16.41-.4.76-.72,1.05-.32.29-.7.51-1.15.66-.45.15-.94.23-1.49.23-.76,0-1.43-.16-2-.47-.57-.31-1.02-.79-1.33-1.44-.28-.58-.43-1.31-.46-2.17h14.56v-1.84c0-1.79-.26-3.39-.78-4.8-.52-1.41-1.27-2.62-2.24-3.61ZM132.05,32.65c.52-.33,1.17-.49,1.94-.49s1.42.16,1.94.49c.52.33.91.8,1.18,1.42.17.4.28.86.34,1.37h-6.93c.06-.51.17-.97.34-1.37.27-.62.66-1.09,1.18-1.42Z" fill="#fff"/>
      <polygon points="157.45 42.93 166.33 31.72 166.33 26.8 147.4 26.8 147.4 32.92 156.85 32.92 156.85 33.04 147.08 44.73 147.08 49.17 166.69 49.17 166.69 43.05 157.45 43.05 157.45 42.93" fill="#fff"/>
      <polygon points="180.23 42.93 189.12 31.72 189.12 26.8 170.19 26.8 170.19 32.92 179.63 32.92 179.63 33.04 169.87 44.73 169.87 49.17 189.48 49.17 189.48 43.05 180.23 43.05 180.23 42.93" fill="#fff"/>
      <path d="M209.36,27.97c-1.72-.97-3.8-1.45-6.22-1.45s-4.51.48-6.24,1.45c-1.73.97-3.06,2.31-3.97,4.04-.91,1.73-1.37,3.74-1.37,6.03s.46,4.31,1.37,6.03c.91,1.73,2.24,3.08,3.97,4.04,1.73.97,3.82,1.45,6.24,1.45s4.5-.48,6.22-1.45c1.72-.97,3.04-2.31,3.95-4.04.91-1.73,1.37-3.74,1.37-6.03s-.46-4.31-1.37-6.03c-.91-1.73-2.23-3.08-3.95-4.04ZM206.07,41c-.27.83-.65,1.47-1.15,1.91-.5.44-1.1.66-1.79.66s-1.31-.22-1.82-.66c-.51-.44-.89-1.08-1.16-1.91-.27-.83-.4-1.83-.4-2.99s.13-2.17.4-2.98c.27-.81.65-1.43,1.16-1.86.51-.43,1.11-.64,1.82-.64s1.29.21,1.79.64c.5.43.88,1.05,1.15,1.86.27.81.4,1.81.4,2.98s-.13,2.16-.4,2.99Z" fill="#fff"/>
      <polygon points="217.71 49.17 225.79 49.17 225.79 38.97 237.4 38.97 237.4 32.6 225.79 32.6 225.79 25.88 238.68 25.88 238.68 19.35 217.71 19.35 217.71 49.17" fill="#fff"/>
      <path d="M254.94,39.37c0,.73-.13,1.37-.4,1.9-.27.53-.64.94-1.12,1.23-.48.29-1.05.43-1.72.43-1.01,0-1.8-.32-2.36-.95-.56-.63-.84-1.5-.84-2.61v-12.57h-8.05v14.25c0,1.63.32,3.08.96,4.34.64,1.27,1.55,2.26,2.72,2.98,1.17.72,2.55,1.08,4.12,1.08,2.05,0,3.65-.58,4.79-1.73,1-1.01,1.74-2.23,2.25-3.65l.14,5.11h7.54v-22.37h-8.05v12.57Z" fill="#fff"/>
      <path d="M285.24,29.59c-.97-.99-2.14-1.75-3.51-2.28-1.37-.53-2.9-.79-4.59-.79-2.31,0-4.31.48-6,1.44-1.69.96-3.01,2.3-3.93,4.03-.93,1.73-1.39,3.75-1.39,6.05s.46,4.48,1.38,6.2c.92,1.72,2.24,3.04,3.97,3.95,1.73.91,3.79,1.37,6.17,1.37,1.91,0,3.59-.27,5.03-.8,1.45-.53,2.64-1.29,3.59-2.27.95-.98,1.61-2.14,1.98-3.47l-7.08-1.04c-.16.41-.4.76-.72,1.05-.32.29-.7.51-1.15.66-.45.15-.94.23-1.49.23-.76,0-1.43-.16-2-.47-.57-.31-1.02-.79-1.33-1.44-.28-.58-.43-1.31-.46-2.17h14.56v-1.84c0-1.79-.26-3.39-.78-4.8-.52-1.41-1.27-2.62-2.24-3.61ZM275.27,32.65c.52-.33,1.17-.49,1.94-.49s1.42.16,1.94.49c.52.33.91.8,1.18,1.42.17.4.28.86.34,1.37h-6.93c.06-.51.17-.97.34-1.37.27-.62.66-1.09,1.18-1.42Z" fill="#fff"/>
      <rect x="291.2" y="19.35" width="8.05" height="29.82" fill="#fff"/>
    </g>
    <g>
      <polygon points="89.62 63.33 80.08 63.33 80.08 64.45 84.23 64.45 84.23 76.43 85.48 76.43 85.48 64.45 89.62 64.45 89.62 63.33" fill="#fff"/>
      <path d="M93.72,63.33l-4.8,13.09h1.33l1.39-3.89h5.67l1.41,3.89h1.32l-4.84-13.09h-1.48ZM96.9,71.43h-4.87l1.27-3.56c.16-.45.34-1,.55-1.64.18-.54.37-1.17.59-1.88.22.71.41,1.33.58,1.86.21.64.4,1.19.58,1.67l1.29,3.56Z" fill="#fff"/>
      <path d="M106.76,71.18h3.77c-.01.85-.18,1.59-.5,2.21-.34.65-.81,1.15-1.41,1.51-.61.35-1.31.53-2.12.53-.88,0-1.66-.22-2.34-.66s-1.21-1.08-1.6-1.91-.58-1.82-.58-2.97.19-2.17.58-3c.39-.83.92-1.46,1.59-1.9.67-.44,1.43-.66,2.27-.66.53,0,1.02.08,1.45.24.43.16.82.39,1.16.67.34.29.62.62.84.99.23.37.4.77.51,1.21h1.28c-.1-.58-.3-1.13-.59-1.64-.29-.52-.67-.97-1.12-1.37-.45-.4-.98-.71-1.58-.93-.6-.23-1.25-.34-1.97-.34-1.11,0-2.09.28-2.94.83-.85.55-1.51,1.33-1.99,2.33-.48,1-.72,2.2-.72,3.57s.24,2.54.72,3.55c.48,1.01,1.15,1.79,2,2.34.86.55,1.86.83,3.01.83,1.03,0,1.94-.22,2.73-.67.79-.45,1.41-1.08,1.86-1.89.45-.81.67-1.78.67-2.88v-1.08h-5v1.11Z" fill="#fff"/>
      <polygon points="115.63 63.33 114.38 63.33 114.38 76.43 121.86 76.43 121.86 75.31 115.63 75.31 115.63 63.33" fill="#fff"/>
      <rect x="123.95" y="63.33" width="1.25" height="13.09" fill="#fff"/>
      <path d="M131.91,63.33l-4.8,13.09h1.33l1.39-3.89h5.67l1.41,3.89h1.32l-4.84-13.09h-1.48ZM135.09,71.43h-4.87l1.27-3.56c.16-.45.34-1,.55-1.64.18-.54.37-1.17.59-1.88.22.71.41,1.33.58,1.86.21.64.4,1.19.58,1.67l1.29,3.56Z" fill="#fff"/>
      <rect x="145.52" y="63.33" width="1.25" height="13.09" fill="#fff"/>
      <path d="M158.15,64.97c.68-.43,1.43-.64,2.25-.64.52,0,.99.08,1.43.23.44.16.83.37,1.17.65.35.28.63.61.86.99.23.38.39.79.48,1.24h1.25c-.11-.6-.3-1.17-.59-1.69-.29-.52-.66-.98-1.11-1.37-.45-.39-.97-.69-1.56-.91-.59-.22-1.23-.33-1.93-.33-1.1,0-2.08.28-2.94.83-.86.55-1.53,1.33-2.01,2.34-.49,1.01-.73,2.2-.73,3.57s.24,2.55.73,3.56c.49,1.01,1.16,1.79,2.01,2.33.86.55,1.83.82,2.94.82.7,0,1.35-.11,1.94-.33.59-.22,1.11-.53,1.56-.92.45-.39.82-.85,1.11-1.37.29-.52.48-1.08.58-1.67h-1.25c-.09.45-.25.86-.48,1.24s-.52.71-.86.99c-.35.28-.74.5-1.17.65-.44.16-.91.23-1.43.23-.81,0-1.56-.21-2.24-.63-.68-.42-1.22-1.05-1.62-1.87-.4-.83-.61-1.84-.61-3.04s.2-2.21.6-3.04.94-1.45,1.62-1.88Z" fill="#fff"/>
      <path d="M175.98,63.98c-.86-.55-1.83-.83-2.94-.83s-2.09.28-2.94.83c-.86.55-1.53,1.33-2.01,2.34-.49,1.01-.73,2.2-.73,3.57s.24,2.55.73,3.55c.49,1,1.16,1.78,2.01,2.33.86.55,1.84.83,2.94.83s2.08-.27,2.94-.82c.86-.55,1.52-1.33,2.01-2.33.48-1.01.72-2.19.72-3.56s-.24-2.56-.72-3.57c-.48-1.01-1.15-1.79-2.01-2.34ZM176.92,72.87c-.39.83-.92,1.46-1.59,1.9-.67.44-1.43.66-2.28.66s-1.62-.22-2.29-.66c-.67-.44-1.21-1.08-1.59-1.91-.39-.83-.58-1.82-.58-2.97s.19-2.16.58-3c.39-.83.92-1.47,1.59-1.91.67-.44,1.44-.66,2.29-.66s1.61.22,2.28.66c.67.44,1.2,1.08,1.59,1.91.39.83.58,1.83.58,3s-.19,2.15-.58,2.98Z" fill="#fff"/>
      <path d="M188.36,70.55c-.35-.27-.73-.5-1.15-.68-.42-.18-.84-.33-1.27-.45l-1.37-.4c-.42-.12-.82-.28-1.22-.47-.4-.19-.72-.44-.98-.74-.25-.3-.38-.68-.38-1.13s.13-.88.39-1.24c.26-.36.62-.64,1.07-.85.46-.21.98-.31,1.58-.31.86,0,1.56.21,2.13.63.56.42.88,1,.96,1.72h1.22c-.03-.67-.23-1.26-.59-1.78-.37-.52-.86-.93-1.49-1.24-.63-.3-1.36-.46-2.18-.46s-1.54.15-2.19.45c-.65.3-1.16.72-1.54,1.26-.38.54-.57,1.16-.57,1.87,0,.83.28,1.51.84,2.07.56.55,1.36.98,2.41,1.28l1.55.45c.55.16,1.03.34,1.44.54.41.21.72.46.95.75.23.3.34.66.34,1.09,0,.52-.14.97-.43,1.36-.29.39-.68.69-1.18.91-.5.22-1.08.33-1.73.33-.57,0-1.1-.09-1.58-.28-.48-.18-.86-.45-1.16-.81-.3-.35-.47-.79-.51-1.31h-1.27c.05.7.26,1.32.64,1.85.38.53.9.94,1.56,1.24.66.3,1.44.44,2.33.44.95,0,1.76-.16,2.45-.48.68-.32,1.21-.76,1.57-1.33.36-.56.55-1.2.55-1.9,0-.54-.11-1-.32-1.39-.21-.39-.49-.72-.83-.99Z" fill="#fff"/>
      <polygon points="190.88 64.45 195.04 64.45 195.04 76.43 196.29 76.43 196.29 64.45 200.43 64.45 200.43 63.33 190.88 63.33 190.88 64.45" fill="#fff"/>
      <rect x="202.53" y="63.33" width="1.25" height="13.09" fill="#fff"/>
      <path d="M219.62,64.12c-.89-.52-1.96-.78-3.21-.78h-4.1v13.09h3.87c1.32,0,2.44-.26,3.36-.79.92-.52,1.63-1.28,2.11-2.26.48-.98.73-2.16.73-3.54s-.24-2.52-.71-3.49c-.47-.97-1.16-1.72-2.04-2.24ZM220.6,72.78c-.38.82-.94,1.44-1.69,1.88-.75.44-1.68.65-2.8.65h-2.55v-10.86h2.77c1.05,0,1.94.22,2.65.65.71.43,1.26,1.05,1.63,1.85.37.8.55,1.77.55,2.89s-.19,2.11-.57,2.93Z" fill="#fff"/>
      <polygon points="226.17 70.4 232.16 70.4 232.16 69.28 226.17 69.28 226.17 64.45 232.56 64.45 232.56 63.33 224.92 63.33 224.92 76.43 232.69 76.43 232.69 75.31 226.17 75.31 226.17 70.4" fill="#fff"/>
      <polygon points="236.16 63.33 234.9 63.33 234.9 76.43 242.38 76.43 242.38 75.31 236.16 75.31 236.16 63.33" fill="#fff"/>
      <path d="M256.72,63.87c-.63-.36-1.4-.54-2.33-.54h-4.27v13.09h1.25v-4.97h3.03c.93,0,1.7-.18,2.32-.54.62-.36,1.1-.84,1.41-1.46.32-.62.48-1.31.48-2.07s-.16-1.46-.48-2.07c-.32-.61-.79-1.09-1.42-1.45ZM257.05,68.91c-.22.45-.56.8-1.01,1.05-.45.25-1.01.38-1.69.38h-2.98v-5.89h2.97c.68,0,1.24.13,1.7.38.45.25.79.6,1.01,1.05.22.45.33.95.33,1.51s-.11,1.08-.33,1.52Z" fill="#fff"/>
      <rect x="260.78" y="63.33" width="1.25" height="13.09" fill="#fff"/>
      <polygon points="266.4 70.4 272.39 70.4 272.39 69.28 266.4 69.28 266.4 64.45 272.79 64.45 272.79 63.33 265.15 63.33 265.15 76.43 272.92 76.43 272.92 75.31 266.4 75.31 266.4 70.4" fill="#fff"/>
      <path d="M284.09,72c0,.28,0,.6,0,.96,0,.36.02.74.04,1.15.01.27.03.57.05.86-.15-.27-.3-.55-.44-.81-.23-.39-.44-.74-.65-1.07-.21-.33-.39-.62-.55-.86l-5.97-8.89h-1.44v13.09h1.26v-8.29c0-.26,0-.57-.02-.95-.01-.37-.03-.8-.04-1.27-.01-.34-.03-.69-.04-1.06.24.4.46.78.65,1.1.26.44.5.83.72,1.17.22.35.44.68.65,1.01l5.57,8.28h1.45v-13.09h-1.25v8.66Z" fill="#fff"/>
      <path d="M298.52,66.32c-.48-1.01-1.15-1.79-2.01-2.34-.86-.55-1.83-.83-2.94-.83s-2.09.28-2.94.83c-.86.55-1.53,1.33-2.01,2.34-.49,1.01-.73,2.2-.73,3.57s.24,2.55.73,3.55c.49,1,1.16,1.78,2.01,2.33.86.55,1.84.83,2.94.83s2.08-.27,2.94-.82c.86-.55,1.52-1.33,2.01-2.33.48-1.01.72-2.19.72-3.56s-.24-2.56-.72-3.57ZM297.45,72.87c-.39.83-.92,1.46-1.59,1.9-.67.44-1.43.66-2.28.66s-1.62-.22-2.29-.66-1.21-1.08-1.59-1.91-.58-1.82-.58-2.97.19-2.16.58-3c.39-.83.92-1.47,1.59-1.91.67-.44,1.44-.66,2.29-.66s1.61.22,2.28.66c.67.44,1.2,1.08,1.59,1.91.39.83.58,1.83.58,3s-.19,2.15-.58,2.98Z" fill="#fff"/>
    </g>
  </g>
</svg>